/* XPM */
static char * maximize_toggled_pressed_xpm[] = {
"21 21 146 2",
"  	c None",
". 	c #156FF6",
"+ 	c #B5C6EF",
"@ 	c #F4F6FD",
"# 	c #FFFFFF",
"$ 	c #1369F2",
"% 	c #CFD3DA",
"& 	c #1F3B5F",
"* 	c #002453",
"= 	c #002557",
"- 	c #002658",
"; 	c #00285C",
"> 	c #002A61",
", 	c #002D67",
"' 	c #002F6B",
") 	c #002F6C",
"! 	c #003273",
"~ 	c #003478",
"{ 	c #00357B",
"] 	c #00377F",
"^ 	c #003780",
"/ 	c #003984",
"( 	c #003882",
"_ 	c #1F5295",
": 	c #CFDAE9",
"< 	c #002A62",
"[ 	c #003070",
"} 	c #003275",
"| 	c #003883",
"1 	c #003A88",
"2 	c #003D8F",
"3 	c #003E90",
"4 	c #004094",
"5 	c #004299",
"6 	c #00439B",
"7 	c #00449E",
"8 	c #00459F",
"9 	c #0045A1",
"0 	c #0045A0",
"a 	c #1F5AA8",
"b 	c #002452",
"c 	c #003170",
"d 	c #003B8B",
"e 	c #003C8F",
"f 	c #003E94",
"g 	c #004099",
"h 	c #00429D",
"i 	c #0044A2",
"j 	c #0046A5",
"k 	c #0048A8",
"l 	c #0049AB",
"m 	c #004AAC",
"n 	c #004AAD",
"o 	c #004BAE",
"p 	c #004BAF",
"q 	c #004BAD",
"r 	c #003377",
"s 	c #003D92",
"t 	c #003F97",
"u 	c #00419D",
"v 	c #0043A1",
"w 	c #0045A4",
"x 	c #0047A8",
"y 	c #0048AB",
"z 	c #0049AD",
"A 	c #004AAE",
"B 	c #004CB0",
"C 	c #004DB1",
"D 	c #004DB2",
"E 	c #002555",
"F 	c #003D90",
"G 	c #00409C",
"H 	c #0042A1",
"I 	c #0044A5",
"J 	c #78A2D8",
"K 	c #00275A",
"L 	c #003781",
"M 	c #003F95",
"N 	c #0045A9",
"O 	c #004EB3",
"P 	c #00295F",
"Q 	c #003985",
"R 	c #00419B",
"S 	c #0043A2",
"T 	c #0044A6",
"U 	c #0046AA",
"V 	c #0047AC",
"W 	c #0048AD",
"X 	c #0049AE",
"Y 	c #004AAF",
"Z 	c #004CB1",
"` 	c #004FB4",
" .	c #002B63",
"..	c #003B8A",
"+.	c #00439F",
"@.	c #0045A5",
"#.	c #0050B5",
"$.	c #0051B6",
"%.	c #002D68",
"&.	c #0045A3",
"*.	c #0052B7",
"=.	c #0053B8",
"-.	c #0054B9",
";.	c #003F93",
">.	c #0047A7",
",.	c #0055BA",
"'.	c #0056BB",
").	c #0057BC",
"!.	c #003172",
"~.	c #004095",
"{.	c #0048AA",
"].	c #0049AC",
"^.	c #0058BD",
"/.	c #005ABF",
"(.	c #0059BE",
"_.	c #004BB0",
":.	c #0055B9",
"<.	c #005CC1",
"[.	c #005DC2",
"}.	c #005EC3",
"|.	c #00449D",
"1.	c #004EB2",
"2.	c #005FC4",
"3.	c #0060C5",
"4.	c #00367E",
"5.	c #0061C6",
"6.	c #0059BD",
"7.	c #0062C6",
"8.	c #005ABE",
"9.	c #0054B8",
"0.	c #003881",
"a.	c #0046A1",
"b.	c #005CC0",
"c.	c #005FC3",
"d.	c #0060C4",
"e.	c #0058BC",
"f.	c #005BC0",
"g.	c #1F5294",
"h.	c #0046A2",
"i.	c #1F66BE",
"j.	c #CFDAE8",
"k.	c #1F5BA9",
"l.	c #1F66BF",
"m.	c #CFDEF1",
"n.	c #146AF4",
"o.	c #1260F3",
". + @ # # # # # # # # # # # # # # # @ + $ ",
"+ % & * = - ; > , ' ) ! ~ { ] ^ / ( _ : + ",
"@ & < [ } ~ ] | 1 2 3 4 5 6 7 8 9 0 9 a @ ",
"# b c ( d e f g h i j k l m n o o p o q # ",
"# * r d s t u v w x y z A B C C C D D D # ",
"# E { F t G H I J J J J J J J C C D D D # ",
"# K L M u H I N J J J J J J J C C O D D # ",
"# P Q R S T U V W X Y Z D O J ` ` ` O D # ",
"#  ...+.@.J J J J J J J ` #.J $.#.#.` O # ",
"# %.2 &.x J J J J J J J *.=.J -.=.=.$.` # ",
"# ) ;.>.y J X p Z O #.J ,.'.J ).'.,.=.#.# ",
"# !.~.{.].J A B D #.*.J ^.J J /.(.^.,.$.# ",
"# r 5 ].A J _.C ` *.:.J /.<.[.}.<./.'.$.# ",
"# { |.q B J C 1.#.=.'.J <.}.2.3.}.<.^.*.# ",
"# 4.7 o C J J J J J J J [.2.3.5.2.[.6.=.# ",
"# L 0 o C C 1.` $.-.)./.[.2.5.7.3.}.8.9.# ",
"# 0.a.o C C 1.O #.=.'.(.b.}.c.3.d.[.(.=.# ",
"# | 9 p D D O O #.=.,.e./.<.[.}.[.f.).$.# ",
"@ g.h.p D D D D ` $.=.,.).^.(./.(.).-.i.@ ",
"+ j.k.q D D D D O ` #.$.*.*.=.-.=.*.l.m.+ ",
"n.+ @ # # # # # # # # # # # # # # # @ + o."};
