/* XPM */
static char * maximize_toggled_active_xpm[] = {
"21 21 297 2",
"  	c None",
". 	c #0D6EFA",
"+ 	c #93B4F2",
"@ 	c #F3F6FD",
"# 	c #FFFFFF",
"$ 	c #94B4F1",
"% 	c #0B67F4",
"& 	c #94B3EF",
"* 	c #DCE5FD",
"= 	c #739AF8",
"- 	c #608CF7",
"; 	c #5584F6",
"> 	c #4D7EF6",
", 	c #487AF5",
"' 	c #4276F5",
") 	c #4478F5",
"! 	c #3E73F5",
"~ 	c #3B71F5",
"{ 	c #336CF4",
"] 	c #306AF4",
"^ 	c #2864F4",
"/ 	c #1F5DEF",
"( 	c #3467E0",
"_ 	c #D2DBF2",
": 	c #93B3EE",
"< 	c #769CF8",
"[ 	c #90AFF9",
"} 	c #94B2F9",
"| 	c #85A7F8",
"1 	c #759CF8",
"2 	c #6E97F8",
"3 	c #6892F7",
"4 	c #6690F7",
"5 	c #628EF7",
"6 	c #5F8CF7",
"7 	c #5E8BF7",
"8 	c #5988F6",
"9 	c #5685F6",
"0 	c #5082F6",
"a 	c #497CF5",
"b 	c #3F75F5",
"c 	c #326BF2",
"d 	c #235CE3",
"e 	c #305CC5",
"f 	c #6590F7",
"g 	c #97B4F9",
"h 	c #9AB7FA",
"i 	c #89AAF9",
"j 	c #7AA0F8",
"k 	c #729AF8",
"l 	c #6D95F8",
"m 	c #6892F8",
"n 	c #658FF7",
"o 	c #618DF7",
"p 	c #5D8AF7",
"q 	c #5987F6",
"r 	c #5283F6",
"s 	c #4C7EF6",
"t 	c #4377F5",
"u 	c #376EF2",
"v 	c #285FE3",
"w 	c #1546B9",
"x 	c #5886F6",
"y 	c #8DADF9",
"z 	c #7FA3F8",
"A 	c #7199F8",
"B 	c #6A93F8",
"C 	c #648EF7",
"D 	c #5E8AF7",
"E 	c #5986F7",
"F 	c #5482F6",
"G 	c #5180F6",
"H 	c #4B7CF5",
"I 	c #4A7CF5",
"J 	c #3A72F4",
"K 	c #346CF2",
"L 	c #2A61E3",
"M 	c #1848BB",
"N 	c #5282F6",
"O 	c #799FF8",
"P 	c #7CA1F8",
"Q 	c #6791F8",
"R 	c #608BF7",
"S 	c #5985F7",
"T 	c #326CF4",
"U 	c #316BF4",
"V 	c #3069F1",
"W 	c #2C62E4",
"X 	c #1D4CBC",
"Y 	c #7099F8",
"Z 	c #628CF8",
"` 	c #5B86F7",
" .	c #5480F7",
"..	c #2C69F5",
"+.	c #2D69F5",
"@.	c #2E69F2",
"#.	c #2C63E5",
"$.	c #4679F5",
"%.	c #658FF8",
"&.	c #5E89F7",
"*.	c #5783F7",
"=.	c #507EF6",
"-.	c #4A79F6",
";.	c #4375F5",
">.	c #3D71F5",
",.	c #366EF4",
"'.	c #2F6BF5",
").	c #2B69F5",
"!.	c #2766F5",
"~.	c #2A68F5",
"{.	c #2C69F2",
"].	c #2A62E4",
"^.	c #1C4CBD",
"/.	c #628DF8",
"(.	c #2D6BF5",
"_.	c #2869F5",
":.	c #2266F5",
"<.	c #2567F5",
"[.	c #2968F2",
"}.	c #2963E4",
"|.	c #1B4BBD",
"1.	c #3C72F4",
"2.	c #5D89F7",
"3.	c #2C6FF5",
"4.	c #276CF5",
"5.	c #2069F6",
"6.	c #2268F5",
"7.	c #2569F2",
"8.	c #2562E6",
"9.	c #194BBE",
"0.	c #376EF4",
"a.	c #5181F6",
"b.	c #5785F7",
"c.	c #5281F6",
"d.	c #477BF6",
"e.	c #4179F6",
"f.	c #3B77F5",
"g.	c #2C72F6",
"h.	c #266FF6",
"i.	c #1E6BF6",
"j.	c #1F6AF6",
"k.	c #216AF3",
"l.	c #2162E6",
"m.	c #1649BE",
"n.	c #326BF4",
"o.	c #4B7DF5",
"p.	c #5483F6",
"q.	c #5684F7",
"r.	c #4D80F6",
"s.	c #487DF6",
"t.	c #427CF6",
"u.	c #3C7AF6",
"v.	c #2D76F6",
"w.	c #1C6FF6",
"x.	c #1C6DF6",
"y.	c #1C6AF4",
"z.	c #1C61E6",
"A.	c #1248BF",
"B.	c #2B66F4",
"C.	c #4E7FF6",
"D.	c #5182F6",
"E.	c #4D81F7",
"F.	c #487FF6",
"G.	c #437FF6",
"H.	c #3D7EF6",
"I.	c #2D7AF7",
"J.	c #2677F7",
"K.	c #2174F7",
"L.	c #1B71F7",
"M.	c #186EF7",
"N.	c #186AF4",
"O.	c #165FE7",
"P.	c #0F47C0",
"Q.	c #2562F3",
"R.	c #3D73F4",
"S.	c #487BF5",
"T.	c #4E80F6",
"U.	c #4E81F6",
"V.	c #4B80F6",
"W.	c #477FF6",
"X.	c #427FF6",
"Y.	c #3C7FF6",
"Z.	c #2D7CF7",
"`.	c #2679F8",
" +	c #2077F7",
".+	c #1973F7",
"++	c #166FF7",
"@+	c #1369F4",
"#+	c #105DE8",
"$+	c #0A44BF",
"%+	c #1E5DF3",
"&+	c #497BF5",
"*+	c #2D7DF7",
"=+	c #257AF8",
"-+	c #1E77F8",
";+	c #1773F8",
">+	c #116DF7",
",+	c #0D66F4",
"'+	c #0B59E7",
")+	c #0641C0",
"!+	c #1859F3",
"~+	c #2E68F4",
"{+	c #3A71F4",
"]+	c #4277F5",
"^+	c #467AF5",
"/+	c #457AF6",
"(+	c #437BF6",
"_+	c #417CF6",
":+	c #3D7DF6",
"<+	c #387DF6",
"[+	c #327DF7",
"}+	c #2A7CF8",
"|+	c #247AF8",
"1+	c #1D77F8",
"2+	c #1573F8",
"3+	c #0E6CF8",
"4+	c #0963F4",
"5+	c #0556E7",
"6+	c #023FBF",
"7+	c #1456F3",
"8+	c #2562F4",
"9+	c #3971F4",
"0+	c #3D74F5",
"a+	c #3D74F6",
"b+	c #3B75F5",
"c+	c #3976F5",
"d+	c #3777F5",
"e+	c #3278F6",
"f+	c #2C78F7",
"g+	c #2577F7",
"h+	c #1F76F7",
"i+	c #1972F7",
"j+	c #116EF8",
"k+	c #0B68F7",
"l+	c #0560F4",
"m+	c #0253E6",
"n+	c #013DBE",
"o+	c #0E50ED",
"p+	c #1C5BEF",
"q+	c #2863F0",
"r+	c #2F68F0",
"s+	c #336BF1",
"t+	c #346CF1",
"u+	c #316CF2",
"v+	c #316DF2",
"w+	c #2E6FF2",
"x+	c #2A70F2",
"y+	c #2570F3",
"z+	c #1F6FF3",
"A+	c #196DF4",
"B+	c #136AF4",
"C+	c #0760F3",
"D+	c #025AF0",
"E+	c #004DE2",
"F+	c #003AB9",
"G+	c #285EDF",
"H+	c #134FDF",
"I+	c #1B55DF",
"J+	c #215AE2",
"K+	c #255CE1",
"L+	c #265DE0",
"M+	c #245CE1",
"N+	c #235EE2",
"O+	c #215EE2",
"P+	c #1E5EE2",
"Q+	c #1B5FE5",
"R+	c #165EE5",
"S+	c #135DE6",
"T+	c #0E5BE5",
"U+	c #0958E6",
"V+	c #0454E6",
"W+	c #014EE2",
"X+	c #0045D3",
"Y+	c #1F4EB8",
"Z+	c #D0DAF1",
"`+	c #2856C3",
" @	c #0D3FB6",
".@	c #1144BD",
"+@	c #1245BB",
"@@	c #1445B9",
"#@	c #1244B9",
"$@	c #1345BC",
"%@	c #1346BD",
"&@	c #1045BE",
"*@	c #0D45C0",
"=@	c #0A45C1",
"-@	c #0844C3",
";@	c #033FC0",
">@	c #013FC3",
",@	c #003BBE",
"'@	c #1F4EB9",
")@	c #CFD8ED",
"!@	c #93B2F2",
"~@	c #0C68F7",
"{@	c #93B4F1",
"]@	c #93B1F1",
"^@	c #0A5EF5",
". + @ # # # # # # # # # # # # # # # # $ % ",
"& * = - ; > , ' ) ! ! ~ ~ { { ] ^ / ( _ : ",
"# < [ } | 1 2 3 4 5 6 7 8 9 0 a b c d e @ ",
"# f g h i j k l m n 5 o p q r s t u v w # ",
"# x i y z A B C D E F G H I ) b J K L M # ",
"# N O P A Q R S # # # # # # # T U V W X # ",
"# > 2 Y B Z `  .# # # # # # # ..+.@.#.X # ",
"# $.m B %.&.*.=.-.;.>.,.'.).# !.~.{.].^.# ",
"# $.- /.R # # # # # # # (._.# :.<.[.}.|.# ",
"# 1.q p 2.# # # # # # # 3.4.# 5.6.7.8.9.# ",
"# 0.a.b.E # c.> d.e.f.# g.h.# i.j.k.l.m.# ",
"# n.o.p.q.# N r.s.t.u.# v.# # w.x.y.z.A.# ",
"# B.) C.N # D.E.F.G.H.# I.J.K.L.M.N.O.P.# ",
"# Q.R.S.T.# U.V.W.X.Y.# Z.`. +.+++@+#+$+# ",
"# %+,.' &+# # # # # # # *+=+-+;+>+,+'+)+# ",
"# !+~+{+]+^+/+(+_+:+<+[+}+|+1+2+3+4+5+6+# ",
"# 7+8+U 9+0+a+b+c+d+e+f+g+h+i+j+k+l+m+n+# ",
"# o+p+q+r+s+t+u+v+w+x+y+z+A+B+,+C+D+E+F+# ",
"@ G+H+I+J+K+L+M+N+O+P+Q+R+S+T+U+V+W+X+Y+# ",
"+ Z+`+ @.@+@@@#@$@%@&@*@=@-@)+;@>@,@'@)@!@",
"~@{@# # # # # # # # # # # # # # # # @ ]@^@"};
