/* XPM */
static char * maximize_toggled_prelight_xpm[] = {
"21 21 288 2",
"  	c None",
". 	c #0D6EFA",
"+ 	c #A7BEF0",
"@ 	c #F4F6FD",
"# 	c #FFFFFF",
"$ 	c #F5F7FD",
"% 	c #0B67F4",
"& 	c #A7BEEF",
"* 	c #DCE7FF",
"= 	c #72A1FF",
"- 	c #6A9CFF",
"; 	c #5F94FF",
"> 	c #558EFF",
", 	c #518BFF",
"' 	c #4A86FF",
") 	c #4B87FF",
"! 	c #4684FF",
"~ 	c #4482FF",
"{ 	c #4080FF",
"] 	c #3B7CFF",
"^ 	c #3A7BFF",
"/ 	c #3678FF",
"( 	c #2E73FF",
"_ 	c #276CF9",
": 	c #3A73E7",
"< 	c #D3DDF3",
"[ 	c #73A1FF",
"} 	c #97B9FF",
"| 	c #9CBDFF",
"1 	c #90B5FF",
"2 	c #82ACFF",
"3 	c #7BA7FF",
"4 	c #75A3FF",
"5 	c #6F9FFF",
"6 	c #6C9DFF",
"7 	c #689BFF",
"8 	c #6599FF",
"9 	c #6095FF",
"0 	c #5D93FF",
"a 	c #568EFF",
"b 	c #4F8AFF",
"c 	c #3878FB",
"d 	c #2969EB",
"e 	c #3566CB",
"f 	c #9EBEFF",
"g 	c #A4C2FF",
"h 	c #99BAFF",
"i 	c #8AB0FF",
"j 	c #82ABFF",
"k 	c #79A6FF",
"l 	c #74A3FF",
"m 	c #71A0FF",
"n 	c #6D9EFF",
"o 	c #699BFF",
"p 	c #5A91FF",
"q 	c #538CFF",
"r 	c #4986FF",
"s 	c #3D7CFC",
"t 	c #2E6CEA",
"u 	c #1B52C2",
"v 	c #6296FF",
"w 	c #91B5FF",
"x 	c #8FB4FF",
"y 	c #7AA6FF",
"z 	c #6B9DFF",
"A 	c #6598FF",
"B 	c #5F95FF",
"C 	c #5B92FF",
"D 	c #548DFF",
"E 	c #528CFF",
"F 	c #4C88FF",
"G 	c #4785FF",
"H 	c #4280FF",
"I 	c #3B7AFB",
"J 	c #316FEC",
"K 	c #1F55C3",
"L 	c #5990FF",
"M 	c #85ADFF",
"N 	c #8BB1FF",
"O 	c #84ACFF",
"P 	c #78A5FF",
"Q 	c #70A0FF",
"R 	c #679AFF",
"S 	c #3B7BFF",
"T 	c #397AFF",
"U 	c #3979FC",
"V 	c #3370EC",
"W 	c #2357C3",
"X 	c #81AAFF",
"Y 	c #7AA7FF",
"Z 	c #6B9CFF",
"` 	c #6297FF",
" .	c #3579FF",
"..	c #3679FF",
"+.	c #3879FC",
"@.	c #2358C5",
"#.	c #4E89FF",
"$.	c #71A1FF",
"%.	c #77A5FF",
"&.	c #74A2FF",
"*.	c #669AFF",
"=.	c #5890FF",
"-.	c #508DFF",
";.	c #4989FF",
">.	c #4183FF",
",.	c #3A7FFF",
"'.	c #357BFF",
").	c #317AFF",
"!.	c #337AFF",
"~.	c #367BFC",
"{.	c #3372ED",
"].	c #2359C5",
"^.	c #4D88FF",
"/.	c #699CFF",
"(.	c #3983FF",
"_.	c #3380FF",
":.	c #2F7FFF",
"<.	c #3280FF",
"[.	c #3580FC",
"}.	c #3276ED",
"|.	c #235AC6",
"1.	c #6196FF",
"2.	c #689AFF",
"3.	c #3B8DFF",
"4.	c #348AFF",
"5.	c #2F88FF",
"6.	c #3188FF",
"7.	c #3385FC",
"8.	c #3079ED",
"9.	c #215CC8",
"0.	c #3F7FFF",
"a.	c #6397FF",
"b.	c #5993FF",
"c.	c #5492FF",
"d.	c #5093FF",
"e.	c #4A95FF",
"f.	c #3D96FF",
"g.	c #3694FF",
"h.	c #2F92FF",
"i.	c #3090FF",
"j.	c #328CFC",
"k.	c #2E7DEF",
"l.	c #1E5DC9",
"m.	c #5C92FF",
"n.	c #5C93FF",
"o.	c #5792FF",
"p.	c #5594FF",
"q.	c #5298FF",
"r.	c #4D9CFF",
"s.	c #409FFF",
"t.	c #2F9BFF",
"u.	c #2E97FF",
"v.	c #2E91FC",
"w.	c #2A80F0",
"x.	c #1B5DCB",
"y.	c #3275FF",
"z.	c #5991FF",
"A.	c #5596FF",
"B.	c #529CFF",
"C.	c #4FA1FF",
"D.	c #42A9FF",
"E.	c #3AA9FF",
"F.	c #34A7FF",
"G.	c #30A5FF",
"H.	c #2CA0FF",
"I.	c #2A96FD",
"J.	c #2581F1",
"K.	c #185DCC",
"L.	c #2D72FF",
"M.	c #5790FF",
"N.	c #5490FF",
"O.	c #5597FF",
"P.	c #539FFF",
"Q.	c #4FA4FF",
"R.	c #44AFFF",
"S.	c #3EB1FF",
"T.	c #37AFFF",
"U.	c #2FABFF",
"V.	c #29A4FF",
"W.	c #2599FD",
"X.	c #1E80F2",
"Y.	c #145BCD",
"Z.	c #276EFF",
"`.	c #3D7DFF",
" +	c #4985FF",
".+	c #43B1FF",
"++	c #3EB4FF",
"@+	c #35B2FF",
"#+	c #2CAEFF",
"$+	c #24A5FF",
"%+	c #1F97FD",
"&+	c #1980F3",
"*+	c #105ACE",
"=+	c #216AFF",
"-+	c #3578FF",
";+	c #4885FF",
">+	c #4D89FF",
",+	c #4C8CFF",
"'+	c #4D94FF",
")+	c #4C9CFF",
"!+	c #4BA3FF",
"~+	c #47AAFF",
"{+	c #41AFFF",
"]+	c #3BB2FF",
"^+	c #33B1FF",
"/+	c #2AADFF",
"(+	c #21A3FF",
"_+	c #1A95FD",
":+	c #137CF2",
"<+	c #0C59CF",
"[+	c #1C66FF",
"}+	c #3879FF",
"|+	c #3F7EFF",
"1+	c #4483FF",
"2+	c #4584FF",
"3+	c #4587FF",
"4+	c #468EFF",
"5+	c #4696FF",
"6+	c #439CFF",
"7+	c #3FA3FF",
"8+	c #3BA8FF",
"9+	c #33AAFF",
"0+	c #2DA9FF",
"a+	c #24A6FF",
"b+	c #1D9EFF",
"c+	c #1690FD",
"d+	c #1078F1",
"e+	c #0B57CE",
"f+	c #1761F9",
"g+	c #246BFA",
"h+	c #2F72FB",
"i+	c #3676FB",
"j+	c #3A7AFB",
"k+	c #3B7BFC",
"l+	c #3B7EFC",
"m+	c #3C84FC",
"n+	c #3B8AFC",
"o+	c #3990FC",
"p+	c #3695FC",
"q+	c #3299FC",
"r+	c #2C9CFD",
"s+	c #259BFD",
"t+	c #1E97FD",
"u+	c #1790FC",
"v+	c #1184FA",
"w+	c #0C6DED",
"x+	c #0850C8",
"y+	c #2F6AE4",
"z+	c #1B5FE9",
"A+	c #2163E8",
"B+	c #2868EB",
"C+	c #2C6AEA",
"D+	c #2E6DEA",
"E+	c #2D6DEB",
"F+	c #2C71EC",
"G+	c #2C76EC",
"H+	c #2A79ED",
"I+	c #287EEF",
"J+	c #2481F1",
"K+	c #2182F1",
"L+	c #1C80F1",
"M+	c #1880F3",
"N+	c #117AF2",
"O+	c #0C6EED",
"P+	c #0A5DDD",
"Q+	c #265DC1",
"R+	c #D1DDF4",
"S+	c #2E61CA",
"T+	c #134BBF",
"U+	c #164FC2",
"V+	c #1950C1",
"W+	c #1B52C1",
"X+	c #1A52C3",
"Y+	c #1954C6",
"Z+	c #1B58C9",
"`+	c #1858C8",
" @	c #165BCD",
".@	c #145CD0",
"+@	c #135CD0",
"@@	c #0F58CC",
"#@	c #0D5AD2",
"$@	c #0B58D1",
"%@	c #0951CB",
"&@	c #265EC3",
"*@	c #D0DAEE",
"=@	c #A7BDF0",
"-@	c #0C68F7",
";@	c #0A5EF5",
". + @ # # # # # # # # # # # # # # # $ + % ",
"& * = - ; > , ' ) ! ! ~ { ] ^ / ( _ : < & ",
"$ [ } | 1 2 3 4 5 6 7 8 9 0 a b ~ c d e @ ",
"# 6 f g h i j k l m n o 8 9 p q r s t u # ",
"# v w h x 2 y = z A B C D E F G H I J K # ",
"# L M N O P Q R # # # # # # # S T U V W # ",
"# D 3 X Y = Z ` # # # # # # #  ...+.V @.# ",
"# #.$.%.&.n *.B =.-.;.>.,.'.# ).!.~.{.].# ",
"# ^./.5 n # # # # # # # (._.# :.<.[.}.|.# ",
"# ~ 1.7 2.# # # # # # # 3.4.# 5.6.7.8.9.# ",
"# 0.p 1.a.# B b.c.d.e.# f.g.# h.i.j.k.l.# ",
"# T q m.; # n.o.p.q.r.# s.# # t.u.v.w.x.# ",
"# y.) > p # z.o.A.B.C.# D.E.F.G.H.I.J.K.# ",
"# L.~ b D # M.N.O.P.Q.# R.S.T.U.V.W.X.Y.# ",
"# Z.`. +b # # # # # # # .+++@+#+$+%+&+*+# ",
"# =+-+{ ;+F >+,+'+)+!+~+{+]+^+/+(+_+:+<+# ",
"# [+L.}+|+1+2+3+4+5+6+7+8+9+0+a+b+c+d+e+# ",
"# f+g+h+i+j+k+l+m+n+o+p+q+r+s+t+u+v+w+x+# ",
"@ y+z+A+B+C+D+E+F+G+H+I+J+K+L+M+N+O+P+Q+$ ",
"+ R+S+T+U+V+W+X+Y+Z+`+ @.@+@@@#@$@%@&@*@=@",
"-@+ $ # # # # # # # # # # # # # # # @ =@;@"};
