/* XPM */
static char * maximize_toggled_inactive_xpm[] = {
"21 21 277 2",
"  	c None",
". 	c #A0B7E9",
"+ 	c #B9C9EF",
"@ 	c #BDCCF0",
"# 	c #BDCBEF",
"$ 	c #BDCAEF",
"% 	c #BDCAEE",
"& 	c #BCC9EE",
"* 	c #BCC8EE",
"= 	c #BCC8ED",
"- 	c #BCC7ED",
"; 	c #9EAEE4",
"> 	c #9EB4E7",
", 	c #AABDED",
"' 	c #7597EB",
") 	c #6C8FEA",
"! 	c #668BE9",
"~ 	c #6287E9",
"{ 	c #6085E8",
"] 	c #5D82E8",
"^ 	c #5D83E8",
"/ 	c #5A80E8",
"( 	c #597FE8",
"_ 	c #557CE7",
": 	c #547BE7",
"< 	c #537AE7",
"[ 	c #4E76E6",
"} 	c #4A71E3",
"| 	c #5475DC",
"1 	c #A4B0E4",
"2 	c #9BA7E2",
"3 	c #BBC8EE",
"4 	c #7696EA",
"5 	c #849FEA",
"6 	c #86A1EA",
"7 	c #7E9BE9",
"8 	c #7695E9",
"9 	c #7292E9",
"0 	c #6F8FE9",
"a 	c #6E8DE8",
"b 	c #6C8CE8",
"c 	c #6A8BE8",
"d 	c #6A8AE8",
"e 	c #6788E8",
"f 	c #6686E8",
"g 	c #6384E7",
"h 	c #5F81E6",
"i 	c #5A7CE6",
"j 	c #5376E4",
"k 	c #4B6EDC",
"l 	c #526DCD",
"m 	c #B5BBE9",
"n 	c #BBC7ED",
"o 	c #6E8FE9",
"p 	c #87A1EA",
"q 	c #88A2EA",
"r 	c #809BEA",
"s 	c #7996E9",
"t 	c #7493E9",
"u 	c #7290E9",
"v 	c #6F8EE9",
"w 	c #6D8CE8",
"x 	c #6C8BE8",
"y 	c #6B8AE8",
"z 	c #6988E8",
"A 	c #6786E8",
"B 	c #6483E7",
"C 	c #6180E7",
"D 	c #5C7DE6",
"E 	c #5677E4",
"F 	c #4E6FDC",
"G 	c #4461C7",
"H 	c #B9BDEA",
"I 	c #6789E9",
"J 	c #829CEA",
"K 	c #7B97E9",
"L 	c #7492E9",
"M 	c #708FE9",
"N 	c #6D8CE9",
"O 	c #6A8AE9",
"P 	c #6887E9",
"Q 	c #6584E8",
"R 	c #6382E8",
"S 	c #6080E7",
"T 	c #5D7DE7",
"U 	c #5A7BE7",
"V 	c #577AE6",
"W 	c #5476E5",
"X 	c #4F70DD",
"Y 	c #4663C8",
"Z 	c #BABEEA",
"` 	c #BBC7EE",
" .	c #6487E9",
"..	c #7896EA",
"+.	c #7A96EA",
"@.	c #DFE6FA",
"#.	c #5C87ED",
"$.	c #5377E7",
"%.	c #5275E5",
"&.	c #5071DE",
"*.	c #4965C9",
"=.	c #BABEEB",
"-.	c #BCC7EE",
";.	c #6285EA",
">.	c #7392EB",
",.	c #7393EA",
"'.	c #708FEA",
").	c #5176E8",
"!.	c #5275E6",
"~.	c #5172DF",
"{.	c #4966CA",
"].	c #BABFEB",
"^.	c #BCC6EE",
"/.	c #5F83E9",
"(.	c #708FEB",
"_.	c #7190EA",
":.	c #6E8DEA",
"<.	c #5076E8",
"[.	c #5176E6",
"}.	c #5072DF",
"|.	c #4966CB",
"1.	c #BBC0EC",
"2.	c #6C8CEA",
"3.	c #6D8DEB",
"4.	c #6C8BEA",
"5.	c #4E75E8",
"6.	c #5076E6",
"7.	c #5073DF",
"8.	c #5A7FE9",
"9.	c #6889EA",
"0.	c #6A8BEA",
"a.	c #6A8AEA",
"b.	c #4C76E8",
"c.	c #4E72E0",
"d.	c #4866CC",
"e.	c #BCC7EF",
"f.	c #577DE9",
"g.	c #6487EA",
"h.	c #6789EA",
"i.	c #4B77E9",
"j.	c #4C77E8",
"k.	c #4C73E1",
"l.	c #4666CC",
"m.	c #BBC0ED",
"n.	c #BDC8EF",
"o.	c #557DEA",
"p.	c #6688EA",
"q.	c #6788EB",
"r.	c #4A79EA",
"s.	c #4A77E9",
"t.	c #4A73E2",
"u.	c #4566CE",
"v.	c #BCC1EE",
"w.	c #BDC9F0",
"x.	c #527CEB",
"y.	c #5F84EB",
"z.	c #6487EB",
"A.	c #6688EB",
"B.	c #487BEB",
"C.	c #4879E9",
"D.	c #4773E3",
"E.	c #4366CF",
"F.	c #BCC3EE",
"G.	c #BECAF1",
"H.	c #507BEB",
"I.	c #5C83EB",
"J.	c #6186EB",
"K.	c #6488EC",
"L.	c #487DEB",
"M.	c #4679EA",
"N.	c #4573E4",
"O.	c #4266CF",
"P.	c #BCC4EF",
"Q.	c #BECBF1",
"R.	c #4D79EB",
"S.	c #5982EC",
"T.	c #5F85EC",
"U.	c #6287EC",
"V.	c #467DEC",
"W.	c #4479EB",
"X.	c #4372E4",
"Y.	c #4066D0",
"Z.	c #BDC6F0",
"`.	c #BECCF2",
" +	c #4A79EC",
".+	c #5580EC",
"++	c #5B84EC",
"@+	c #5F87EC",
"#+	c #457DED",
"$+	c #4279EB",
"%+	c #4072E5",
"&+	c #3F66D0",
"*+	c #BEC6F0",
"=+	c #BFCEF2",
"-+	c #4978EC",
";+	c #517EED",
">+	c #5783EC",
",+	c #5B85EC",
"'+	c #5D87ED",
")+	c #5D86ED",
"!+	c #5B87ED",
"~+	c #5A87ED",
"{+	c #5787ED",
"]+	c #5487EE",
"^+	c #5186EE",
"/+	c #4E85EE",
"(+	c #4B83EE",
"_+	c #4780EE",
":+	c #447DED",
"<+	c #4178EC",
"[+	c #3F72E5",
"}+	c #BEC7F1",
"|+	c #BFCFF3",
"1+	c #4676EA",
"2+	c #4D7CEA",
"3+	c #5380EB",
"4+	c #5682EB",
"5+	c #5883EB",
"6+	c #5983EB",
"7+	c #5584EC",
"8+	c #5484EC",
"9+	c #5184EC",
"0+	c #4E83EC",
"a+	c #4B82ED",
"b+	c #4880ED",
"c+	c #427AEC",
"d+	c #3F77EB",
"e+	c #3E70E3",
"f+	c #3F66CF",
"g+	c #BEC9F2",
"h+	c #BCCDF2",
"i+	c #537EE3",
"j+	c #4977E2",
"k+	c #4D7AE2",
"l+	c #507CE4",
"m+	c #527DE3",
"n+	c #517CE3",
"o+	c #517DE3",
"p+	c #4F7CE3",
"q+	c #4E7CE3",
"r+	c #4C7CE5",
"s+	c #4A7CE5",
"t+	c #487BE6",
"u+	c #4679E5",
"v+	c #4378E6",
"w+	c #4176E6",
"x+	c #3F72E3",
"y+	c #3F6DDC",
"z+	c #4E71CE",
"A+	c #BECAF2",
"B+	c #A4BCEE",
"C+	c #A8BDEC",
"D+	c #537BD5",
"E+	c #466FCE",
"F+	c #4872D1",
"G+	c #4871D0",
"H+	c #4971CF",
"I+	c #4871CF",
"J+	c #4971D1",
"K+	c #4770D2",
"L+	c #4570D2",
"M+	c #4470D3",
"N+	c #436FD4",
"O+	c #426DD2",
"P+	c #406CD2",
"Q+	c #3F6CD4",
"R+	c #3F69D1",
"S+	c #4E73CF",
"T+	c #A7B7E9",
"U+	c #A2B2EC",
"V+	c #A3BBEE",
"W+	c #BFCEF3",
"X+	c #BFCDF3",
"Y+	c #BFCDF2",
"Z+	c #BFCCF2",
"`+	c #BBC8F1",
" @	c #A2B4EC",
"  . + @ @ @ # # # # # $ % % & * = - - ;   ",
"> , ' ) ! ~ { ] ^ / / ( ( _ : < [ } | 1 2 ",
"3 4 5 6 7 8 9 0 a b c d e f g h i j k l m ",
"n o p q r s t u v w x y z A B C D E F G H ",
"n I r J K L M N O P Q R S S T U V W X Y Z ",
"`  ...+.L L M N @.@.@.@.@.@.@.#.$.%.&.*.=.",
"-.;.>.,.'.'.M N @.@.@.@.@.@.@.#.).!.~.{.].",
"^./.(._.:.:.:.N N N N N N N @.#.<.[.}.|.1.",
"^./.2.3.4.@.@.@.@.@.@.@.N N @.#.5.6.7.|.1.",
"-.8.9.0.a.@.@.@.@.@.@.@.N N @.#.b.[ c.d.1.",
"e.f.g.h.9.@.N N N N N @.N N @.#.i.j.k.l.m.",
"n.o.;.p.q.@.N N N N N @.N @.@.#.r.s.t.u.v.",
"w.x.y.z.A.@.N N N N N @.N N N #.B.C.D.E.F.",
"G.H.I.J.K.@.N N N N N @.N N N #.L.M.N.O.P.",
"Q.R.S.T.U.@.@.@.@.@.@.@.N N N #.V.W.X.Y.Z.",
"`. +.+++@+#.#.#.#.#.#.#.#.#.#.#.#+$+%+&+*+",
"=+-+;+>+,+'+)+#.!+~+{+]+^+/+(+_+:+<+[+&+}+",
"|+1+2+3+4+5+6+>+>+7+8+9+0+a+b+#+c+d+e+f+g+",
"h+i+j+k+l+m+m+n+o+p+q+r+s+t+u+v+w+x+y+z+A+",
"B+C+D+E+F+G+H+I+J+J+K+L+M+N+O+P+Q+R+S+T+U+",
"  V+|+|+|+|+|+|+W+W+X+Y+Y+Y+Z+Z+Z+Z+`+ @  "};
