/* XPM */
static char * menu_active_xpm[] = {
"16 16 42 1",
" 	c None",
".	c #0057E6",
"+	c #0058E6",
"@	c #0055E4",
"#	c #0054E4",
"$	c #0053E4",
"%	c #0053E3",
"&	c #0054E3",
"*	c #0053E2",
"=	c #0052E2",
"-	c #0052E1",
";	c #0051E1",
">	c #0054E5",
",	c #0055E5",
"'	c #0053E5",
")	c #0054E6",
"!	c #0055E7",
"~	c #0055E6",
"{	c #0056EA",
"]	c #0055E9",
"^	c #0055EA",
"/	c #0056EB",
"(	c #0058EE",
"_	c #005AF2",
":	c #005BF2",
"<	c #005BF3",
"[	c #005AF3",
"}	c #015CF5",
"|	c #015DF5",
"1	c #005DF5",
"2	c #005CF5",
"3	c #005EF9",
"4	c #005FF9",
"5	c #0060F9",
"6	c #0162F9",
"7	c #0163F9",
"8	c #0063FA",
"9	c #0062FA",
"0	c #0269FE",
"a	c #0268FE",
"b	c #0267FD",
"c	c #0167FD",
"..++++++++++++++",
"@@@#########$%%%",
"&&&&&&&&&&&&&***",
"%%=========-;;;;",
">,,,,,,,,,,,,>>>",
"''>>>>>>>>>>>'''",
"))>>>>>>>>>>>'''",
"!!!!!!!!!!!!!~~~",
"{{]]]]]]]]]]^^^^",
"//^^^^^^^^^^^^^^",
"((((((((((((((((",
"_:::::::::::<[[[",
"}|11111111111222",
"3344444444455555",
"6777777777778999",
"000aaaaaaaaabccc"};
