/* XPM */
static char * menu_inactive_xpm[] = {
"16 16 47 1",
" 	c None",
".	c #7B9DE2",
"+	c #7B9CE1",
"@	c #7B9CE2",
"#	c #7B9BE1",
"$	c #7B9BE2",
"%	c #7B9AE1",
"&	c #7A9AE0",
"*	c #7A99E0",
"=	c #7A99DF",
"-	c #7999DF",
";	c #7999DE",
">	c #799ADF",
",	c #7998DF",
"'	c #7997DF",
")	c #7996DE",
"!	c #7996DF",
"~	c #7895DD",
"{	c #7895DE",
"]	c #7995DF",
"^	c #7A97E0",
"/	c #7A96DF",
"(	c #7A96E0",
"_	c #7A95E0",
":	c #7A96E1",
"<	c #7B98E1",
"[	c #7B97E0",
"}	c #7B97E1",
"|	c #7B99E1",
"1	c #7B98E0",
"2	c #7B99E2",
"3	c #7D9CE4",
"4	c #7D9BE3",
"5	c #7D9BE4",
"6	c #7F9FE6",
"7	c #7F9EE6",
"8	c #7E9EE5",
"9	c #7E9DE5",
"0	c #7E9EE6",
"a	c #7E9DE6",
"b	c #7FA3E7",
"c	c #7FA2E6",
"d	c #7FA2E7",
"e	c #80A6E8",
"f	c #80A5E7",
"g	c #81A5E7",
"h	c #81A4E7",
".+@#####$%%%%%%%",
"&**=--;->;;;-;,,",
"')!)))))!)))))))",
"))))~~~{{~~~{{{{",
"')))))))')!)!!]]",
"^///////^/(/((__",
"^///////^/(/((__",
":(((((((:(:(::::",
"<[[[[[[[}[}[}}}}",
"|<<<11[<<[[[}}}}",
"2|||||||2|2|2222",
"3444444454545555",
"3444444454545555",
"677788900999aaaa",
"bcccccccbcdcdddd",
"efefffffefffgghh"};
